<?xml version="1.0" encoding="us-ascii" standalone="no"?><svg xmlns="http://www.w3.org/2000/svg" xmlns:xlink="http://www.w3.org/1999/xlink" contentStyleType="text/css" height="525px" preserveAspectRatio="none" style="width:854px;height:525px;background:#FFFFFF;" version="1.1" viewBox="0 0 854 525" width="854px" zoomAndPan="magnify"><defs/><g><line style="stroke:#000000;stroke-width:1.0;" x1="42" x2="42" y1="36.2969" y2="490.2891"/><line style="stroke:#000000;stroke-width:1.0;" x1="268" x2="268" y1="36.2969" y2="490.2891"/><line style="stroke:#000000;stroke-width:1.0;" x1="610" x2="610" y1="36.2969" y2="490.2891"/><line style="stroke:#000000;stroke-width:1.0;" x1="784" x2="784" y1="36.2969" y2="490.2891"/><rect fill="#FFFFFF" height="30.2969" rx="2.5" ry="2.5" style="stroke:#000000;stroke-width:1.0;" width="45" x="20" y="5"/><text fill="#000000" font-family="Verdana" font-size="14" lengthAdjust="spacing" textLength="31" x="27" y="24.9951">User</text><rect fill="#FFFFFF" height="30.2969" rx="2.5" ry="2.5" style="stroke:#000000;stroke-width:1.0;" width="45" x="20" y="489.2891"/><text fill="#000000" font-family="Verdana" font-size="14" lengthAdjust="spacing" textLength="31" x="27" y="509.2842">User</text><rect fill="#FFFFFF" height="30.2969" rx="2.5" ry="2.5" style="stroke:#000000;stroke-width:1.0;" width="57" x="240" y="5"/><text fill="#000000" font-family="Verdana" font-size="14" lengthAdjust="spacing" textLength="43" x="247" y="24.9951">Client</text><rect fill="#FFFFFF" height="30.2969" rx="2.5" ry="2.5" style="stroke:#000000;stroke-width:1.0;" width="57" x="240" y="489.2891"/><text fill="#000000" font-family="Verdana" font-size="14" lengthAdjust="spacing" textLength="43" x="247" y="509.2842">Client</text><rect fill="#FFFFFF" height="30.2969" rx="2.5" ry="2.5" style="stroke:#000000;stroke-width:1.0;" width="159" x="531" y="5"/><text fill="#000000" font-family="Verdana" font-size="14" lengthAdjust="spacing" textLength="145" x="538" y="24.9951">AuthorizationServer</text><rect fill="#FFFFFF" height="30.2969" rx="2.5" ry="2.5" style="stroke:#000000;stroke-width:1.0;" width="159" x="531" y="489.2891"/><text fill="#000000" font-family="Verdana" font-size="14" lengthAdjust="spacing" textLength="145" x="538" y="509.2842">AuthorizationServer</text><rect fill="#FFFFFF" height="30.2969" rx="2.5" ry="2.5" style="stroke:#000000;stroke-width:1.0;" width="127" x="721" y="5"/><text fill="#000000" font-family="Verdana" font-size="14" lengthAdjust="spacing" textLength="113" x="728" y="24.9951">ResourceServer</text><rect fill="#FFFFFF" height="30.2969" rx="2.5" ry="2.5" style="stroke:#000000;stroke-width:1.0;" width="127" x="721" y="489.2891"/><text fill="#000000" font-family="Verdana" font-size="14" lengthAdjust="spacing" textLength="113" x="728" y="509.2842">ResourceServer</text><polygon fill="#000000" points="256.5,63.4297,266.5,67.4297,256.5,71.4297,260.5,67.4297" style="stroke:#000000;stroke-width:1.0;"/><line style="stroke:#000000;stroke-width:1.0;" x1="42.5" x2="262.5" y1="67.4297" y2="67.4297"/><text fill="#000000" font-family="Verdana" font-size="13" font-weight="bold" lengthAdjust="spacing" textLength="9" x="49.5" y="62.3638">1</text><text fill="#000000" font-family="Verdana" font-size="13" lengthAdjust="spacing" textLength="189" x="62.5" y="62.3638">Initiate Authorization Request</text><line style="stroke:#000000;stroke-width:1.0;" x1="268.5" x2="310.5" y1="96.5625" y2="96.5625"/><line style="stroke:#000000;stroke-width:1.0;" x1="310.5" x2="310.5" y1="96.5625" y2="109.5625"/><line style="stroke:#000000;stroke-width:1.0;" x1="269.5" x2="310.5" y1="109.5625" y2="109.5625"/><polygon fill="#000000" points="279.5,105.5625,269.5,109.5625,279.5,113.5625,275.5,109.5625" style="stroke:#000000;stroke-width:1.0;"/><text fill="#000000" font-family="Verdana" font-size="13" font-weight="bold" lengthAdjust="spacing" textLength="9" x="275.5" y="91.4966">2</text><text fill="#000000" font-family="Verdana" font-size="13" lengthAdjust="spacing" textLength="315" x="288.5" y="91.4966">Generate cryptographically random code_verifier</text><line style="stroke:#000000;stroke-width:1.0;" x1="268.5" x2="310.5" y1="138.6953" y2="138.6953"/><line style="stroke:#000000;stroke-width:1.0;" x1="310.5" x2="310.5" y1="138.6953" y2="151.6953"/><line style="stroke:#000000;stroke-width:1.0;" x1="269.5" x2="310.5" y1="151.6953" y2="151.6953"/><polygon fill="#000000" points="279.5,147.6953,269.5,151.6953,279.5,155.6953,275.5,151.6953" style="stroke:#000000;stroke-width:1.0;"/><text fill="#000000" font-family="Verdana" font-size="13" font-weight="bold" lengthAdjust="spacing" textLength="8" x="275.5" y="133.6294">3</text><text fill="#000000" font-family="Verdana" font-size="13" lengthAdjust="spacing" textLength="289" x="287.5" y="133.6294">Generate code_challenge  from code_verifier</text><polygon fill="#000000" points="598.5,191.9609,608.5,195.9609,598.5,199.9609,602.5,195.9609" style="stroke:#000000;stroke-width:1.0;"/><line style="stroke:#000000;stroke-width:1.0;" x1="268.5" x2="604.5" y1="195.9609" y2="195.9609"/><text fill="#000000" font-family="Verdana" font-size="13" font-weight="bold" lengthAdjust="spacing" textLength="9" x="275.5" y="183.3286">4</text><text fill="#000000" font-family="Verdana" font-size="13" lengthAdjust="spacing" textLength="159" x="288.5" y="175.7622">Redirect to Authorization</text><text fill="#000000" font-family="Verdana" font-size="13" lengthAdjust="spacing" textLength="258" x="292.5" y="190.895">Server(/authorize)  with  code_challenge</text><polygon fill="#000000" points="53.5,221.0938,43.5,225.0938,53.5,229.0938,49.5,225.0938" style="stroke:#000000;stroke-width:1.0;"/><line style="stroke:#000000;stroke-width:1.0;" x1="47.5" x2="609.5" y1="225.0938" y2="225.0938"/><text fill="#000000" font-family="Verdana" font-size="13" font-weight="bold" lengthAdjust="spacing" textLength="9" x="59.5" y="220.0278">5</text><text fill="#000000" font-family="Verdana" font-size="13" lengthAdjust="spacing" textLength="115" x="72.5" y="220.0278">Authenticate User</text><polygon fill="#000000" points="598.5,250.2266,608.5,254.2266,598.5,258.2266,602.5,254.2266" style="stroke:#000000;stroke-width:1.0;"/><line style="stroke:#000000;stroke-width:1.0;" x1="42.5" x2="604.5" y1="254.2266" y2="254.2266"/><text fill="#000000" font-family="Verdana" font-size="13" font-weight="bold" lengthAdjust="spacing" textLength="9" x="49.5" y="249.1606">6</text><text fill="#000000" font-family="Verdana" font-size="13" lengthAdjust="spacing" textLength="101" x="62.5" y="249.1606">Authorize Client</text><polygon fill="#000000" points="279.5,279.3594,269.5,283.3594,279.5,287.3594,275.5,283.3594" style="stroke:#000000;stroke-width:1.0;"/><line style="stroke:#000000;stroke-width:1.0;" x1="273.5" x2="609.5" y1="283.3594" y2="283.3594"/><text fill="#000000" font-family="Verdana" font-size="13" font-weight="bold" lengthAdjust="spacing" textLength="9" x="285.5" y="278.2935">7</text><text fill="#000000" font-family="Verdana" font-size="13" lengthAdjust="spacing" textLength="122" x="298.5" y="278.2935">Authorization Code</text><polygon fill="#000000" points="598.5,323.625,608.5,327.625,598.5,331.625,602.5,327.625" style="stroke:#000000;stroke-width:1.0;"/><line style="stroke:#000000;stroke-width:1.0;" x1="268.5" x2="604.5" y1="327.625" y2="327.625"/><text fill="#000000" font-family="Verdana" font-size="13" font-weight="bold" lengthAdjust="spacing" textLength="9" x="275.5" y="314.9927">8</text><text fill="#000000" font-family="Verdana" font-size="13" lengthAdjust="spacing" textLength="226" x="288.5" y="307.4263">Token Request  (/oauth/token) with</text><text fill="#000000" font-family="Verdana" font-size="13" lengthAdjust="spacing" textLength="245" x="292.5" y="322.5591">Authorization Code  and  code_verifier</text><line style="stroke:#000000;stroke-width:1.0;" x1="610.5" x2="652.5" y1="371.8906" y2="371.8906"/><line style="stroke:#000000;stroke-width:1.0;" x1="652.5" x2="652.5" y1="371.8906" y2="384.8906"/><line style="stroke:#000000;stroke-width:1.0;" x1="611.5" x2="652.5" y1="384.8906" y2="384.8906"/><polygon fill="#000000" points="621.5,380.8906,611.5,384.8906,621.5,388.8906,617.5,384.8906" style="stroke:#000000;stroke-width:1.0;"/><text fill="#000000" font-family="Verdana" font-size="13" font-weight="bold" lengthAdjust="spacing" textLength="9" x="617.5" y="359.2583">9</text><text fill="#000000" font-family="Verdana" font-size="13" lengthAdjust="spacing" textLength="143" x="630.5" y="351.6919">Validate  code_verifier</text><text fill="#000000" font-family="Verdana" font-size="13" lengthAdjust="spacing" textLength="131" x="634.5" y="366.8247">and  code_challange</text><polygon fill="#000000" points="279.5,410.0234,269.5,414.0234,279.5,418.0234,275.5,414.0234" style="stroke:#000000;stroke-width:1.0;"/><line style="stroke:#000000;stroke-width:1.0;" x1="273.5" x2="609.5" y1="414.0234" y2="414.0234"/><text fill="#000000" font-family="Verdana" font-size="13" font-weight="bold" lengthAdjust="spacing" textLength="19" x="285.5" y="408.9575">10</text><text fill="#000000" font-family="Verdana" font-size="13" lengthAdjust="spacing" textLength="170" x="308.5" y="408.9575">idToken and Access Token</text><polygon fill="#000000" points="772.5,439.1563,782.5,443.1563,772.5,447.1563,776.5,443.1563" style="stroke:#000000;stroke-width:1.0;"/><line style="stroke:#000000;stroke-width:1.0;" x1="268.5" x2="778.5" y1="443.1563" y2="443.1563"/><text fill="#000000" font-family="Verdana" font-size="13" font-weight="bold" lengthAdjust="spacing" textLength="18" x="275.5" y="438.0903">11</text><text fill="#000000" font-family="Verdana" font-size="13" lengthAdjust="spacing" textLength="88" x="297.5" y="438.0903">Access Token</text><polygon fill="#000000" points="279.5,468.2891,269.5,472.2891,279.5,476.2891,275.5,472.2891" style="stroke:#000000;stroke-width:1.0;"/><line style="stroke:#000000;stroke-width:1.0;" x1="273.5" x2="783.5" y1="472.2891" y2="472.2891"/><text fill="#000000" font-family="Verdana" font-size="13" font-weight="bold" lengthAdjust="spacing" textLength="18" x="285.5" y="467.2231">12</text><text fill="#000000" font-family="Verdana" font-size="13" lengthAdjust="spacing" textLength="126" x="307.5" y="467.2231">Protected Resource</text><!--SRC=[XLAxRiCm3Dpz5UoM34Ls3mM234Mteg-fGA5AJ4pKbboQRf5-VIa_6ijmqaqWUSUxewwam0gXBWtvh3OiPAasNk2vGKuAkvBGIrBQjb84fXyZ5FmZyjSCye1DQDdYq3Aj1DzMx_gCx71zCv3cSET9o0Ycb4hmsM8ZaFLpKyGjUkI8i7oi9HpOr0LPKvP7OEDTgC06Xs-wb_QaoovIn4bRA1Zz0G7sF8TFq0kcSnNgYD4AI9XPUFNG3wqsPcZW6k2Rf83Puco1EcwCOUKThKfGZwgukyuOugAYiOZZuSwGZs6agdSg3Fup_HG-y7GZM6r2TBYHM5xt3jNz0Z7eWM0My1bvYujVJ4aknZ2xiMuxCNUncWknZix9zKOYT6ijDatlR68__SXvEfOsfypt74G_1Re_Wby0]--></g></svg>